<svg width="12" height="12" viewBox="0 0 12 12" fill="none" xmlns="http://www.w3.org/2000/svg">
<path fill-rule="evenodd" clip-rule="evenodd" d="M6 1.5C5.20435 1.5 4.44129 1.81607 3.87868 2.37868C3.31607 2.94129 3 3.70435 3 4.5V7C3 7.35412 2.90609 7.69855 2.73206 8H9.26794C9.09391 7.69855 9 7.35412 9 7V4.5C9 3.70435 8.68393 2.94129 8.12132 2.37868C7.55871 1.81607 6.79565 1.5 6 1.5ZM11 8C10.7348 8 10.4804 7.89464 10.2929 7.70711C10.1054 7.51957 10 7.26522 10 7V4.5C10 3.43913 9.57857 2.42172 8.82843 1.67157C8.07828 0.921427 7.06087 0.5 6 0.5C4.93913 0.5 3.92172 0.921427 3.17157 1.67157C2.42143 2.42172 2 3.43913 2 4.5V7C2 7.26522 1.89464 7.51957 1.70711 7.70711C1.51957 7.89464 1.26522 8 1 8C0.723858 8 0.5 8.22386 0.5 8.5C0.5 8.77614 0.723858 9 1 9H11V8ZM4.88411 10.0675C5.12298 9.92894 5.42894 10.0103 5.5675 10.2491C5.61145 10.3249 5.67454 10.3878 5.75044 10.4315C5.82635 10.4752 5.9124 10.4982 6 10.4982C6.0876 10.4982 6.17365 10.4752 6.24956 10.4315C6.32546 10.3878 6.38855 10.3249 6.4325 10.2491C6.57106 10.0103 6.87702 9.92894 7.11589 10.0675C7.35475 10.2061 7.43606 10.512 7.2975 10.7509C7.16564 10.9782 6.97638 11.1669 6.74867 11.298C6.52096 11.4292 6.26278 11.4982 6 11.4982C5.73722 11.4982 5.47904 11.4292 5.25133 11.298C5.02362 11.1669 4.83436 10.9782 4.7025 10.7509C4.56394 10.512 4.64525 10.2061 4.88411 10.0675Z" fill="#2638A0"/>
<path fill-rule="evenodd" clip-rule="evenodd" d="M6 1.5C5.20435 1.5 4.44129 1.81607 3.87868 2.37868C3.31607 2.94129 3 3.70435 3 4.5V7C3 7.35412 2.90609 7.69855 2.73206 8H9.26794C9.09391 7.69855 9 7.35412 9 7V4.5C9 3.70435 8.68393 2.94129 8.12132 2.37868C7.55871 1.81607 6.79565 1.5 6 1.5ZM11 8C10.7348 8 10.4804 7.89464 10.2929 7.70711C10.1054 7.51957 10 7.26522 10 7V4.5C10 3.43913 9.57857 2.42172 8.82843 1.67157C8.07828 0.921427 7.06087 0.5 6 0.5C4.93913 0.5 3.92172 0.921427 3.17157 1.67157C2.42143 2.42172 2 3.43913 2 4.5V7C2 7.26522 1.89464 7.51957 1.70711 7.70711C1.51957 7.89464 1.26522 8 1 8C0.723858 8 0.5 8.22386 0.5 8.5C0.5 8.77614 0.723858 9 1 9H11V8ZM4.88411 10.0675C5.12298 9.92894 5.42894 10.0103 5.5675 10.2491C5.61145 10.3249 5.67454 10.3878 5.75044 10.4315C5.82635 10.4752 5.9124 10.4982 6 10.4982C6.0876 10.4982 6.17365 10.4752 6.24956 10.4315C6.32546 10.3878 6.38855 10.3249 6.4325 10.2491C6.57106 10.0103 6.87702 9.92894 7.11589 10.0675C7.35475 10.2061 7.43606 10.512 7.2975 10.7509C7.16564 10.9782 6.97638 11.1669 6.74867 11.298C6.52096 11.4292 6.26278 11.4982 6 11.4982C5.73722 11.4982 5.47904 11.4292 5.25133 11.298C5.02362 11.1669 4.83436 10.9782 4.7025 10.7509C4.56394 10.512 4.64525 10.2061 4.88411 10.0675Z" fill="black" fill-opacity="0.2"/>
</svg>
