<svg width="16" height="18" viewBox="0 0 16 18" fill="none" xmlns="http://www.w3.org/2000/svg">
<path d="M9.33332 6.66649L7.33332 8.66649M13.5253 2.02049C13.5886 1.99866 13.6567 1.99506 13.7219 2.01012C13.7871 2.02518 13.8468 2.05827 13.8941 2.10563C13.9413 2.15298 13.9744 2.21268 13.9893 2.27791C14.0043 2.34314 14.0006 2.41126 13.9787 2.47449L10.0293 13.7612C10.0057 13.8286 9.96233 13.8874 9.90486 13.93C9.8474 13.9725 9.77848 13.9968 9.70705 13.9996C9.63562 14.0025 9.56497 13.9838 9.50428 13.9461C9.44358 13.9083 9.39563 13.8532 9.36666 13.7878L7.22066 8.95982C7.18455 8.87953 7.12028 8.81526 7.03999 8.77915L2.21199 6.63249C2.14685 6.60341 2.09193 6.55546 2.05433 6.49484C2.01672 6.43423 1.99815 6.36373 2.00102 6.29245C2.00389 6.22118 2.02807 6.1524 2.07043 6.095C2.11279 6.03761 2.17139 5.99424 2.23866 5.97049L13.5253 2.02049Z" stroke="white" stroke-linecap="round" stroke-linejoin="round"/>
</svg>
