<svg width="36" height="36" viewBox="0 0 36 36" fill="none" xmlns="http://www.w3.org/2000/svg">
<mask id="mask0_834_6953" style="mask-type:alpha" maskUnits="userSpaceOnUse" x="0" y="0" width="36" height="36">
<rect width="36" height="36" fill="#1F1F1F"/>
</mask>
<g mask="url(#mask0_834_6953)">
<path d="M18 30.7507C14.877 30.7507 12.2213 29.6713 10.0328 27.5126C7.84425 25.3541 6.75 22.7382 6.75 19.6649C6.75 18.1017 7.04575 16.6681 7.63725 15.3641C8.2285 14.0603 9.03088 12.8873 10.0444 11.8451L18 4.03906L25.9556 11.8451C26.9691 12.8873 27.7715 14.0676 28.3628 15.3858C28.9543 16.7041 29.25 18.1304 29.25 19.6649C29.25 22.7382 28.1558 25.3541 25.9673 27.5126C23.7788 29.6713 21.123 30.7507 18 30.7507ZM18 28.5007V7.20069L11.625 13.5007C10.75 14.3257 10.0938 15.2593 9.65625 16.3016C9.21875 17.3438 9 18.4649 9 19.6649C9 22.0899 9.875 24.1688 11.625 25.9016C13.375 27.6343 15.5 28.5007 18 28.5007Z" fill="#1F1F1F"/>
</g>
</svg>
