<svg width="39" height="40" viewBox="0 0 39 40" fill="none" xmlns="http://www.w3.org/2000/svg">
<path d="M20.445 8.86376C20.1283 8.71929 19.7842 8.64453 19.4361 8.64453C19.088 8.64453 18.744 8.71929 18.4273 8.86376L8.01027 13.6043C7.79457 13.6994 7.61119 13.8552 7.48245 14.0526C7.3537 14.2501 7.28516 14.4807 7.28516 14.7165C7.28516 14.9522 7.3537 15.1829 7.48245 15.3803C7.61119 15.5778 7.79457 15.7336 8.01027 15.8287L18.4394 20.5813C18.7561 20.7258 19.1002 20.8006 19.4483 20.8006C19.7964 20.8006 20.1404 20.7258 20.4572 20.5813L30.8863 15.8408C31.102 15.7457 31.2854 15.5899 31.4141 15.3925C31.5429 15.195 31.6114 14.9644 31.6114 14.7286C31.6114 14.4929 31.5429 14.2623 31.4141 14.0648C31.2854 13.8673 31.102 13.7115 30.8863 13.6164L20.445 8.86376Z" stroke="#1F1F1F" stroke-width="2.02586" stroke-linecap="round" stroke-linejoin="round"/>
<path d="M31.6033 20.8008L20.457 25.8573C20.1403 26.0018 19.7963 26.0766 19.4481 26.0766C19.1 26.0766 18.756 26.0018 18.4393 25.8573L7.29297 20.8008" stroke="#1F1F1F" stroke-width="2.02586" stroke-linecap="round" stroke-linejoin="round"/>
<path d="M31.6033 26.0781L20.457 31.1347C20.1403 31.2791 19.7963 31.3539 19.4481 31.3539C19.1 31.3539 18.756 31.2791 18.4393 31.1347L7.29297 26.0781" stroke="#1F1F1F" stroke-width="2.02586" stroke-linecap="round" stroke-linejoin="round"/>
</svg>
