<svg width="48" height="48" viewBox="0 0 48 48" fill="none" xmlns="http://www.w3.org/2000/svg">
<rect x="0.75" y="0.75" width="46.5" height="46.5" rx="23.25" stroke="#7C7C7C" stroke-width="1.5"/>
<path fill-rule="evenodd" clip-rule="evenodd" d="M24.0016 14.2526C22.2777 14.2526 20.6244 14.9374 19.4054 16.1564C18.1864 17.3754 17.5016 19.0287 17.5016 20.7526V26.1693C17.5016 26.9365 17.2982 27.6828 16.9211 28.3359H31.0822C30.7051 27.6828 30.5016 26.9365 30.5016 26.1693V20.7526C30.5016 19.0287 29.8168 17.3754 28.5978 16.1564C27.3788 14.9374 25.7255 14.2526 24.0016 14.2526ZM34.835 28.3359C34.2603 28.3359 33.7092 28.1077 33.3029 27.7013C32.8966 27.295 32.6683 26.7439 32.6683 26.1693V20.7526C32.6683 18.4541 31.7552 16.2497 30.1299 14.6243C28.5046 12.999 26.3002 12.0859 24.0016 12.0859C21.7031 12.0859 19.4987 12.999 17.8734 14.6243C16.2481 16.2497 15.335 18.4541 15.335 20.7526V26.1693C15.335 26.7439 15.1067 27.295 14.7004 27.7013C14.294 28.1077 13.7429 28.3359 13.1683 28.3359C12.57 28.3359 12.085 28.821 12.085 29.4193C12.085 30.0176 12.57 30.5026 13.1683 30.5026H34.835V28.3359ZM21.5839 32.8155C22.1014 32.5153 22.7643 32.6915 23.0645 33.209C23.1598 33.3732 23.2965 33.5095 23.4609 33.6042C23.6254 33.6989 23.8118 33.7488 24.0016 33.7488C24.1914 33.7488 24.3779 33.6989 24.5423 33.6042C24.7068 33.5095 24.8435 33.3732 24.9387 33.209C25.2389 32.6915 25.9018 32.5153 26.4194 32.8155C26.9369 33.1157 27.1131 33.7787 26.8129 34.2962C26.5272 34.7887 26.1171 35.1975 25.6237 35.4817C25.1304 35.7659 24.571 35.9154 24.0016 35.9154C23.4323 35.9154 22.8729 35.7659 22.3795 35.4817C21.8861 35.1975 21.4761 34.7887 21.1904 34.2962C20.8902 33.7787 21.0663 33.1157 21.5839 32.8155Z" fill="#7C7C7C"/>
</svg>
