<svg width="39" height="40" viewBox="0 0 39 40" fill="none" xmlns="http://www.w3.org/2000/svg">
<mask id="mask0_834_3504" style="mask-type:alpha" maskUnits="userSpaceOnUse" x="0" y="0" width="39" height="40">
<rect y="0.550781" width="38.8966" height="38.8966" fill="#D9D9D9"/>
</mask>
<g mask="url(#mask0_834_3504)">
<path d="M19.4795 32.8394L17.5658 31.1503C15.06 28.9167 12.992 26.9865 11.3618 25.3596C9.73198 23.7327 8.4334 22.2802 7.46612 21.0023C6.49883 19.7244 5.82152 18.5598 5.43418 17.5085C5.04656 16.4572 4.85275 15.3934 4.85275 14.317C4.85275 12.2557 5.55303 10.5265 6.95357 9.12916C8.35385 7.73185 10.0846 7.0332 12.1459 7.0332C13.5713 7.0332 14.9135 7.39786 16.1725 8.12717C17.4317 8.85648 18.5341 9.91722 19.4795 11.3094C20.4457 9.91722 21.5479 8.85648 22.7861 8.12717C24.0246 7.39786 25.3565 7.0332 26.7819 7.0332C28.8431 7.0332 30.5739 7.73185 31.9742 9.12916C33.3747 10.5265 34.075 12.2557 34.075 14.317C34.075 15.3934 33.8812 16.4572 33.4936 17.5085C33.1062 18.5598 32.4289 19.7244 31.4616 21.0023C30.4944 22.2802 29.1958 23.7327 27.5659 25.3596C25.9358 26.9865 23.8678 28.9167 21.3619 31.1503L19.4795 32.8394ZM7.5828 18.1908H31.3757C31.7666 17.468 32.044 16.7949 32.208 16.1715C32.3722 15.548 32.4543 14.9299 32.4543 14.317C32.4543 12.6963 31.9042 11.3472 30.804 10.2697C29.7039 9.1925 28.3632 8.65389 26.7819 8.65389C25.4916 8.65389 24.3078 9.02017 23.2306 9.75272C22.1531 10.485 21.123 11.6148 20.1403 13.142H18.7874C17.8048 11.6148 16.7747 10.485 15.6972 9.75272C14.62 9.02017 13.4362 8.65389 12.1459 8.65389C10.5646 8.65389 9.22389 9.1925 8.12371 10.2697C7.02353 11.3472 6.47344 12.6963 6.47344 14.317C6.47344 14.9299 6.56069 15.548 6.73518 16.1715C6.90968 16.7949 7.19222 17.468 7.5828 18.1908ZM11.778 23.4893H27.181C27.8625 22.7808 28.4619 22.1268 28.9791 21.5274C29.4964 20.9281 29.9452 20.3561 30.3255 19.8115H8.60222C9.00307 20.3561 9.46226 20.9281 9.9798 21.5274C10.4971 22.1268 11.0965 22.7808 11.778 23.4893ZM19.4795 30.6454C20.7012 29.5734 21.8102 28.5827 22.8063 27.6735C23.8028 26.7646 24.7144 25.9101 25.5413 25.11H13.4173C14.2444 25.9101 15.156 26.7646 16.1522 27.6735C17.1487 28.5827 18.2577 29.5734 19.4795 30.6454Z" fill="#1F1F1F"/>
</g>
</svg>
