<svg width="39" height="40" viewBox="0 0 39 40" fill="none" xmlns="http://www.w3.org/2000/svg">
<mask id="mask0_834_6947" style="mask-type:alpha" maskUnits="userSpaceOnUse" x="0" y="0" width="39" height="40">
<rect y="0.550781" width="38.8966" height="38.8966" fill="#D9D9D9"/>
</mask>
<g mask="url(#mask0_834_6947)">
<path d="M9.10065 34.5854C8.35459 34.5854 7.7317 34.3356 7.23199 33.8359C6.73228 33.3362 6.48242 32.7133 6.48242 31.9672V11.2726C6.48242 10.5266 6.73228 9.9037 7.23199 9.40398C7.7317 8.90427 8.35459 8.65442 9.10065 8.65442H11.9676V5.03906H13.7131V8.65442H25.3075V5.03906H26.9282V8.65442H29.7952C30.5413 8.65442 31.1642 8.90427 31.6639 9.40398C32.1636 9.9037 32.4135 10.5266 32.4135 11.2726V31.9672C32.4135 32.7133 32.1636 33.3362 31.6639 33.8359C31.1642 34.3356 30.5413 34.5854 29.7952 34.5854H9.10065ZM9.10065 32.9648H29.7952C30.0448 32.9648 30.2735 32.8609 30.4812 32.6532C30.6889 32.4455 30.7928 32.2168 30.7928 31.9672V17.7554H8.10311V31.9672C8.10311 32.2168 8.20697 32.4455 8.41469 32.6532C8.62241 32.8609 8.85106 32.9648 9.10065 32.9648ZM8.10311 16.1343H30.7928V11.2726C30.7928 11.0231 30.6889 10.7944 30.4812 10.5867C30.2735 10.379 30.0448 10.2751 29.7952 10.2751H9.10065C8.85106 10.2751 8.62241 10.379 8.41469 10.5867C8.20697 10.7944 8.10311 11.0231 8.10311 11.2726V16.1343ZM19.4479 23.4898C19.1135 23.4898 18.8221 23.3657 18.5736 23.1174C18.3253 22.8692 18.2012 22.5778 18.2012 22.2431C18.2012 21.9087 18.3253 21.6174 18.5736 21.3691C18.8221 21.1209 19.1135 20.9968 19.4479 20.9968C19.7823 20.9968 20.0738 21.1209 20.3223 21.3691C20.5705 21.6174 20.6947 21.9087 20.6947 22.2431C20.6947 22.5778 20.5705 22.8692 20.3223 23.1174C20.0738 23.3657 19.7823 23.4898 19.4479 23.4898ZM12.9652 23.4898C12.6308 23.4898 12.3393 23.3657 12.0908 23.1174C11.8426 22.8692 11.7185 22.5778 11.7185 22.2431C11.7185 21.9087 11.8426 21.6174 12.0908 21.3691C12.3393 21.1209 12.6308 20.9968 12.9652 20.9968C13.2996 20.9968 13.591 21.1209 13.8395 21.3691C14.0878 21.6174 14.2119 21.9087 14.2119 22.2431C14.2119 22.5778 14.0878 22.8692 13.8395 23.1174C13.591 23.3657 13.2996 23.4898 12.9652 23.4898ZM25.9307 23.4898C25.5963 23.4898 25.3048 23.3657 25.0563 23.1174C24.8081 22.8692 24.684 22.5778 24.684 22.2431C24.684 21.9087 24.8081 21.6174 25.0563 21.3691C25.3048 21.1209 25.5963 20.9968 25.9307 20.9968C26.2651 20.9968 26.5566 21.1209 26.8051 21.3691C27.0533 21.6174 27.1774 21.9087 27.1774 22.2431C27.1774 22.5778 27.0533 22.8692 26.8051 23.1174C26.5566 23.3657 26.2651 23.4898 25.9307 23.4898ZM19.4479 29.7234C19.1135 29.7234 18.8221 29.5993 18.5736 29.351C18.3253 29.1028 18.2012 28.8113 18.2012 28.4767C18.2012 28.1423 18.3253 27.8508 18.5736 27.6023C18.8221 27.3541 19.1135 27.2299 19.4479 27.2299C19.7823 27.2299 20.0738 27.3541 20.3223 27.6023C20.5705 27.8508 20.6947 28.1423 20.6947 28.4767C20.6947 28.8113 20.5705 29.1028 20.3223 29.351C20.0738 29.5993 19.7823 29.7234 19.4479 29.7234ZM12.9652 29.7234C12.6308 29.7234 12.3393 29.5993 12.0908 29.351C11.8426 29.1028 11.7185 28.8113 11.7185 28.4767C11.7185 28.1423 11.8426 27.8508 12.0908 27.6023C12.3393 27.3541 12.6308 27.2299 12.9652 27.2299C13.2996 27.2299 13.591 27.3541 13.8395 27.6023C14.0878 27.8508 14.2119 28.1423 14.2119 28.4767C14.2119 28.8113 14.0878 29.1028 13.8395 29.351C13.591 29.5993 13.2996 29.7234 12.9652 29.7234ZM25.9307 29.7234C25.5963 29.7234 25.3048 29.5993 25.0563 29.351C24.8081 29.1028 24.684 28.8113 24.684 28.4767C24.684 28.1423 24.8081 27.8508 25.0563 27.6023C25.3048 27.3541 25.5963 27.2299 25.9307 27.2299C26.2651 27.2299 26.5566 27.3541 26.8051 27.6023C27.0533 27.8508 27.1774 28.1423 27.1774 28.4767C27.1774 28.8113 27.0533 29.1028 26.8051 29.351C26.5566 29.5993 26.2651 29.7234 25.9307 29.7234Z" fill="#1F1F1F"/>
</g>
</svg>
