<svg width="16" height="16" viewBox="0 0 16 16" fill="none" xmlns="http://www.w3.org/2000/svg">
<path d="M9 13H13V14H9V13ZM9 11H15V12H9V11ZM9 9H15V10H9V9Z" fill="white"/>
<path d="M10.2745 5.6085L8.00001 1L5.72551 5.6085L0.640015 6.3475L4.32001 9.935L3.45101 15L7.00001 13.1345V12.0045L4.77951 13.172L5.30551 10.104L5.39451 9.5855L5.01801 9.219L2.78901 7.0455L5.86951 6.598L6.38951 6.5225L6.62251 6.051L8.00001 3.2595L9.37751 6.051L9.61051 6.5225L10.1305 6.598L13.8575 7.1405L14 6.15L10.2745 5.6085Z" fill="white"/>
</svg>
